<svg width="225" height="50" viewBox="0 0 225 50" fill="none" xmlns="http://www.w3.org/2000/svg">
<path d="M25 50C38.8071 50 50 38.8071 50 25C50 11.1929 38.8071 0 25 0C11.1929 0 0 11.1929 0 25C0 38.8071 11.1929 50 25 50Z" fill="#F92147"/>
<path d="M25.1701 6C20.1603 6.11441 15.3944 8.18487 11.8917 11.7684C8.38908 15.352 6.42798 20.164 6.42798 25.175C6.42798 30.186 8.38908 34.998 11.8917 38.5816C15.3944 42.1651 20.1603 44.2356 25.1701 44.35V6Z" fill="#F92147"/>
<path d="M25.1699 44.35C27.7249 44.4083 30.2657 43.9555 32.6432 43.0181C35.0207 42.0807 37.1868 40.6776 39.0144 38.8913C40.842 37.1049 42.2942 34.9714 43.2857 32.6159C44.2771 30.2604 44.7878 27.7306 44.7878 25.175C44.7878 22.6194 44.2771 20.0895 43.2857 17.7341C42.2942 15.3786 40.842 13.2451 39.0144 11.4587C37.1868 9.67239 35.0207 8.2693 32.6432 7.33189C30.2657 6.39448 27.7249 5.94165 25.1699 6V44.35Z" fill="white"/>
<path d="M25.67 44.35V6H24.67V44.35H25.67ZM25.17 5C22.5203 4.99974 19.8968 5.5231 17.45 6.54L18.22 8.38C20.4396 7.46318 22.8185 6.99419 25.22 7L25.17 5ZM17.45 6.54C15.0045 7.5536 12.7823 9.03847 10.91 10.91L12.32 12.32C14.0123 10.6362 16.0162 9.29793 18.22 8.38L17.45 6.54ZM10.91 10.91C9.03847 12.7823 7.5536 15.0045 6.54 17.45L8.38 18.22C9.29793 16.0162 10.6362 14.0123 12.32 12.32L10.91 10.91ZM6.54 17.45C5.5231 19.8968 4.99974 22.5203 5 25.17H7C6.99419 22.7685 7.46318 20.3896 8.38 18.17L6.54 17.45ZM5 25.17C4.99868 27.823 5.52206 30.4501 6.54 32.9L8.38 32.13C7.46444 29.91 6.9955 27.5314 7 25.13L5 25.17ZM6.54 32.9C7.5536 35.3455 9.03847 37.5677 10.91 39.44L12.32 38C10.6362 36.3077 9.29793 34.3038 8.38 32.1L6.54 32.9ZM10.91 39.44C12.7823 41.3115 15.0045 42.7964 17.45 43.81L18.22 42C16.0113 41.0642 14.007 39.7054 12.32 38L10.91 39.44ZM17.45 43.81C19.8968 44.8269 22.5203 45.3503 25.17 45.35V43.35C22.7685 43.3558 20.3896 42.8868 18.17 41.97L17.45 43.81ZM25.17 45.35C27.823 45.3513 30.4501 44.828 32.9 43.81L32.13 42C29.91 42.9156 27.5314 43.3845 25.13 43.38L25.17 45.35ZM32.9 43.81C35.3455 42.7964 37.5677 41.3115 39.44 39.44L38 38C36.3201 39.7 34.3267 41.0584 32.13 42L32.9 43.81ZM39.44 39.44C41.3115 37.5677 42.7964 35.3455 43.81 32.9L42 32.13C41.0608 34.328 39.7021 36.3219 38 38L39.44 39.44ZM43.81 32.9C44.828 30.4501 45.3513 27.823 45.35 25.17H43.35C43.3545 27.5714 42.8856 29.95 41.97 32.17L43.81 32.9ZM45.35 25.17C45.3503 22.5203 44.8269 19.8968 43.81 17.45L42 18.22C42.9168 20.4396 43.3858 22.8185 43.38 25.22L45.35 25.17ZM43.81 17.45C42.7964 15.0045 41.3115 12.7823 39.44 10.91L38 12.32C39.7054 14.007 41.0642 16.0113 42 18.22L43.81 17.45ZM39.44 10.91C37.5677 9.03847 35.3455 7.5536 32.9 6.54L32.13 8.38C34.3218 9.30378 36.3148 10.6415 38 12.32L39.44 10.91ZM32.9 6.54C30.4501 5.52206 27.823 4.99868 25.17 5V7C27.5714 6.9955 29.95 7.46444 32.17 8.38L32.9 6.54Z" fill="white"/>
<path d="M61.8201 36.05C61.9401 35.69 62.2901 34.86 62.8201 33.57C63.3501 32.28 64.2201 30.57 65.2001 28.46C66.1801 26.35 67.4001 23.74 68.7601 20.79C70.1201 17.84 71.6601 14.51 73.3401 10.79C73.4309 10.591 73.5012 10.3833 73.5501 10.17C73.6167 9.98704 73.6538 9.79465 73.6601 9.60003C73.665 9.49344 73.648 9.38698 73.6102 9.28722C73.5724 9.18745 73.5145 9.09652 73.4401 9.02003C73.2017 8.85189 72.9099 8.77716 72.6201 8.81003C72.1642 8.79325 71.7095 8.86678 71.2822 9.02638C70.8549 9.18599 70.4633 9.42852 70.1301 9.74003C69.506 10.3764 69.0401 11.1506 68.7701 12C68.4887 12.8485 68.3436 13.7361 68.3401 14.63C68.3401 14.85 68.3401 15.1 68.3401 15.39C68.3401 15.68 68.4001 16 68.4501 16.39C67.9247 16.4077 67.4115 16.2295 67.0101 15.89C66.6444 15.5204 66.3615 15.0773 66.1801 14.59C65.9989 14.1171 65.9008 13.6164 65.8901 13.11C65.8991 12.3213 66.1239 11.5501 66.5401 10.88C67.0176 10.139 67.6158 9.48327 68.3101 8.94003C69.0266 8.33292 69.8372 7.84656 70.7101 7.50003C71.55 7.17802 72.4406 7.0087 73.3401 7.00003C74.1628 6.97695 74.9671 7.24623 75.6101 7.76003C76.3636 8.46877 76.8686 9.40158 77.0501 10.42C77.4355 12.2302 77.6033 14.08 77.5501 15.93C77.5501 17.49 77.4901 19.07 77.3701 20.68C77.2501 22.29 77.1701 23.75 77.0501 25.14C76.9301 26.53 76.8701 27.72 76.8701 28.71C77.3501 27.29 77.9367 25.79 78.6301 24.21C79.3234 22.63 80.0934 21.0467 80.9401 19.46C81.7501 17.87 82.5601 16.38 83.3501 14.99C84.1401 13.6 84.8501 12.39 85.4701 11.36C86.0901 10.33 86.6101 9.52003 87.0001 9.00003C87.2524 8.56947 87.5545 8.17007 87.9001 7.81003C88.0425 7.67213 88.2121 7.56535 88.398 7.49649C88.5839 7.42763 88.7822 7.39819 88.9801 7.41003C89.5247 7.45848 90.058 7.59351 90.5601 7.81003C90.2387 8.51888 89.9713 9.25095 89.7601 10C89.4701 11 89.1601 12.14 88.8201 13.46C88.4801 14.78 88.1001 16.46 87.7401 18.21C87.3801 19.96 87.0601 21.64 86.7401 23.4C86.4201 25.16 86.2101 26.82 86.0201 28.4C85.8626 29.7745 85.7791 31.1565 85.7701 32.54C85.7726 33.0283 85.806 33.516 85.8701 34C85.9266 34.3166 86.0102 34.6278 86.1201 34.93C86.2401 35.22 86.3701 35.58 86.5201 36.01C85.6996 36.0597 84.8801 35.8979 84.1401 35.54C83.8677 35.374 83.6316 35.1546 83.4461 34.8952C83.2605 34.6357 83.1292 34.3414 83.0601 34.03C82.8701 33.1431 82.7862 32.2368 82.8101 31.33C82.8268 28.5102 83.1283 25.6993 83.7101 22.94C84.3301 19.9867 85.0501 16.9534 85.8701 13.84C85.1118 14.9412 84.4141 16.0829 83.7801 17.26C83.0601 18.5934 82.3534 19.9834 81.6601 21.43C80.9667 22.8767 80.3001 24.33 79.6601 25.79C79.0301 27.2 78.4801 28.52 78.0001 29.79C77.5201 31.06 77.1501 32 76.8801 32.79L76.4201 32.94C76.3238 32.9521 76.2264 32.9521 76.1301 32.94C75.2901 32.94 74.7501 32.44 74.5101 31.43C74.2599 30.0412 74.1493 28.6309 74.1801 27.22C74.1801 26.28 74.1801 25.29 74.1801 24.22C74.1801 23.15 74.2401 22.05 74.2901 20.94C74.3401 19.83 74.3701 18.7 74.4001 17.6C74.4301 16.5 74.4001 15.44 74.4001 14.43C74.4001 14.07 74.4001 13.71 74.4001 13.35V12.36C72.5734 16.6134 71.0234 20.25 69.7501 23.27C68.5001 26.27 67.4401 28.72 66.5501 30.62C65.9074 32.0834 65.0844 33.4608 64.1001 34.72C63.8418 35.0963 63.5035 35.4108 63.1092 35.6407C62.715 35.8707 62.2747 36.0105 61.8201 36.05V36.05ZM91.8201 43.05C91.2084 43.0472 90.6146 42.8434 90.1301 42.47C89.8661 42.2638 89.6582 41.9945 89.5255 41.687C89.3927 41.3795 89.3392 41.0436 89.3701 40.71C89.3373 39.9466 89.5589 39.1939 90.0001 38.57C90.5011 37.9238 91.0941 37.3545 91.7601 36.88C92.5004 36.366 93.2719 35.8985 94.0701 35.48C94.9101 35.07 95.7101 34.68 96.4801 34.32C96.7401 33.63 97.0301 32.75 97.3401 31.7C97.6501 30.65 97.9701 29.62 98.2101 28.7C97.5035 29.6822 96.7067 30.5962 95.8301 31.43C95.4608 31.8068 95.0206 32.1068 94.5349 32.3127C94.0492 32.5187 93.5276 32.6265 93.0001 32.63C92.5325 32.6252 92.0692 32.5407 91.6301 32.38C91.1446 32.185 90.7224 31.8598 90.4101 31.44C90.074 30.9018 89.9101 30.2739 89.9401 29.64C89.9597 28.8762 90.0705 28.1175 90.2701 27.38C90.5039 26.4968 90.7911 25.6285 91.1301 24.78C91.426 24.0351 91.8016 23.3243 92.2501 22.66C92.6301 22.08 92.9701 21.8 93.2501 21.8C93.4665 21.8189 93.6772 21.88 93.8701 21.98C94.1667 22.081 94.4465 22.226 94.7001 22.41C94.9264 22.538 95.1026 22.739 95.2001 22.98C94.9191 23.3752 94.6779 23.7973 94.4801 24.24C94.1891 24.8234 93.9353 25.4246 93.7201 26.04C93.4801 26.69 93.2801 27.33 93.1101 27.95C92.9798 28.4807 92.906 29.0238 92.8901 29.57C92.8855 29.8966 92.9611 30.2194 93.1101 30.51C93.1975 30.6467 93.3219 30.7559 93.4688 30.8249C93.6156 30.8939 93.779 30.92 93.9401 30.9C94.5369 30.8761 95.108 30.6505 95.5601 30.26C96.18 29.7809 96.7347 29.2228 97.2101 28.6C97.7503 27.9518 98.2448 27.2668 98.6901 26.55C98.758 26.2904 98.8081 26.0265 98.8401 25.76C98.8874 25.3796 98.9711 25.0045 99.0901 24.64C99.2108 24.2273 99.4188 23.8453 99.7001 23.52C99.867 23.3455 100.069 23.2088 100.294 23.1191C100.518 23.0294 100.759 22.9888 101 23C101.176 22.984 101.354 22.984 101.53 23L102.15 23.1C102.089 23.8217 101.955 24.5353 101.75 25.23C101.51 26.23 101.19 27.46 100.75 28.83C100.31 30.2 100 31.62 99.4501 33C100.594 32.5064 101.651 31.8311 102.58 31C103.79 29.8821 104.706 28.4846 105.25 26.93L105.86 27.43C105.531 28.5778 104.966 29.644 104.2 30.56C103.501 31.4349 102.676 32.2001 101.75 32.83C100.885 33.4276 99.964 33.94 99.0001 34.36C98.3901 35.8455 97.6818 37.2887 96.8801 38.68C96.2534 39.8402 95.4505 40.896 94.5001 41.81C93.7857 42.5498 92.8082 42.9775 91.7801 43L91.8201 43.05ZM91.4601 41.72C91.9201 41.72 92.5501 41.24 93.3701 40.28C94.3957 38.962 95.2337 37.5082 95.8601 35.96C95.0901 36.34 94.3101 36.79 93.5101 37.29C92.8043 37.7703 92.1537 38.327 91.5701 38.95C91.0891 39.4125 90.8059 40.0433 90.7801 40.71C90.78 40.9439 90.8277 41.1752 90.9201 41.39C90.972 41.476 91.0454 41.547 91.1331 41.5961C91.2207 41.6452 91.3196 41.6706 91.4201 41.67L91.4601 41.72ZM122.69 37.33C121.935 37.2567 121.228 36.9246 120.69 36.39C119.832 35.6512 119.049 34.8307 118.35 33.94C117.56 32.94 116.77 31.83 115.97 30.63C115.17 29.43 114.47 28.18 113.78 26.96C113.09 25.74 112.49 24.63 112.01 23.65C111.37 25.85 110.74 28.04 110.14 30.2C109.54 32.36 109.01 34.31 108.48 36.14C107.771 36.1456 107.076 35.944 106.48 35.56C106.208 35.4122 105.98 35.1943 105.82 34.9288C105.66 34.6633 105.574 34.36 105.57 34.05C105.581 33.7292 105.641 33.412 105.75 33.11C105.88 32.75 105.98 32.41 106.08 32.11C106.78 30.0167 107.403 28.1567 107.95 26.53C108.497 24.9034 109.013 23.39 109.5 21.99C110 20.6 110.5 19.23 111.01 17.89C111.52 16.55 112.11 15.09 112.74 13.61C113.37 12.13 114.08 10.44 114.9 8.61003C114.049 8.77224 113.218 9.02362 112.42 9.36003C111.72 9.67003 111.14 9.95003 110.69 10.19C110.417 10.3683 110.111 10.4906 109.79 10.55C109.594 10.5234 109.409 10.4478 109.25 10.33C109.011 10.1673 108.793 9.97587 108.6 9.76003C108.458 9.58575 108.372 9.37354 108.35 9.15003C109.017 8.88336 109.797 8.59336 110.69 8.28003C111.673 7.95422 112.675 7.69037 113.69 7.49003C114.772 7.20711 115.882 7.04281 117 7.00003C118.128 7.00391 119.253 7.13813 120.35 7.40003C121.474 7.62867 122.556 8.02654 123.56 8.58003C124.531 9.09959 125.367 9.83935 126 10.74C126.618 11.6941 126.932 12.8135 126.9 13.95C126.926 14.9849 126.663 16.0066 126.14 16.9C125.629 17.7304 124.947 18.4427 124.14 18.99C123.279 19.5707 122.348 20.041 121.37 20.39C120.37 20.7471 119.348 21.0377 118.31 21.26C117.357 21.4383 116.396 21.5685 115.43 21.65L113.27 21.8C114.04 23.02 114.79 24.21 115.54 25.36C116.29 26.51 117.07 27.66 117.91 28.82C118.842 30.0176 119.844 31.1596 120.91 32.24C122.167 33.4761 123.503 34.6285 124.91 35.69C124.855 35.9365 124.746 36.1677 124.59 36.3666C124.434 36.5655 124.236 36.7272 124.01 36.84C123.606 37.109 123.135 37.2612 122.65 37.28L122.69 37.33ZM112.86 20.77C114.21 20.6729 115.549 20.4554 116.86 20.12C118.107 19.8091 119.307 19.335 120.43 18.71C121.44 18.173 122.313 17.4098 122.98 16.48C123.646 15.5474 123.997 14.4261 123.98 13.28C124.044 12.2249 123.712 11.1838 123.05 10.36C122.404 9.63188 121.57 9.09562 120.64 8.81003C119.636 8.49597 118.592 8.32759 117.54 8.31003C116.585 10.1495 115.753 12.0504 115.05 14C114.29 16.11 113.54 18.36 112.82 20.72L112.86 20.77ZM130 34.5C129.351 34.5413 128.7 34.4509 128.086 34.2344C127.473 34.0179 126.91 33.6796 126.43 33.24C126.025 32.8368 125.707 32.3542 125.497 31.8224C125.287 31.2907 125.19 30.7213 125.21 30.15C125.232 28.9899 125.502 27.8478 126 26.8C126.561 25.5815 127.299 24.4527 128.19 23.45C129.044 22.4416 130.057 21.5801 131.19 20.9C132.182 20.273 133.327 19.9274 134.5 19.9C135.126 19.9002 135.74 20.077 136.27 20.41C136.576 20.6178 136.818 20.9063 136.97 21.2434C137.122 21.5806 137.177 21.9533 137.13 22.32C137.127 23.2298 136.852 24.1179 136.34 24.87C135.772 25.7025 135.057 26.4243 134.23 27C133.317 27.6387 132.326 28.1563 131.28 28.54C130.249 28.9236 129.174 29.1789 128.08 29.3C128.05 29.4051 128.027 29.512 128.01 29.62V30.13C128.01 30.25 128.01 30.46 128.01 30.78C128.074 31.1045 128.185 31.4179 128.34 31.71C128.524 32.0727 128.809 32.3747 129.16 32.58C129.647 32.8445 130.197 32.9691 130.75 32.94C131.804 32.9204 132.836 32.6349 133.75 32.11C134.819 31.5028 135.79 30.7375 136.63 29.84C137.568 28.9249 138.367 27.8771 139 26.73L139.72 27.3C139.101 28.694 138.249 29.9723 137.2 31.08C136.238 32.1248 135.088 32.9795 133.81 33.6C132.628 34.1938 131.323 34.502 130 34.5V34.5ZM128.47 28C129.197 27.8978 129.903 27.6783 130.56 27.35C131.343 26.979 132.082 26.5193 132.76 25.98C133.437 25.4758 134.031 24.8684 134.52 24.18C134.949 23.5996 135.19 22.9016 135.21 22.18C135.222 22.0846 135.215 21.9877 135.189 21.8951C135.163 21.8024 135.119 21.7157 135.06 21.64C134.996 21.5847 134.921 21.5429 134.84 21.5171C134.76 21.4913 134.674 21.4821 134.59 21.49C133.969 21.5168 133.369 21.7293 132.87 22.1C132.212 22.5331 131.616 23.0546 131.1 23.65C130.513 24.2913 129.993 24.9917 129.55 25.74C129.122 26.4588 128.76 27.2153 128.47 28V28ZM140.74 34.33C140.339 34.3516 139.942 34.245 139.606 34.0257C139.269 33.8063 139.012 33.4856 138.87 33.11C138.499 32.1203 138.329 31.0663 138.37 30.01C138.37 29.75 138.37 29.28 138.37 28.61C138.37 27.94 138.43 26.95 138.48 25.73C138.467 25.2277 138.542 24.7269 138.7 24.25C138.84 23.99 139.22 23.86 139.85 23.86C140.48 23.86 140.76 23.98 140.85 24.22C141.006 24.6588 141.068 25.1258 141.03 25.59C141.03 26.31 141.03 27.07 140.92 27.89C140.81 28.71 140.85 29.5 140.85 30.27C140.836 30.8219 140.869 31.374 140.95 31.92C141.03 32.26 141.21 32.43 141.49 32.43C142.029 32.3822 142.531 32.1364 142.9 31.74C143.461 31.1912 143.967 30.5883 144.41 29.94C144.951 29.1805 145.445 28.3891 145.89 27.57C146.37 26.7034 146.79 25.8734 147.15 25.08C147.093 23.9611 147.288 22.8436 147.72 21.81C147.84 21.5655 148.024 21.3587 148.253 21.2123C148.483 21.0659 148.748 20.9855 149.02 20.98C149.256 20.9511 149.496 20.9892 149.712 21.09C149.928 21.1908 150.111 21.3502 150.24 21.55C150.432 21.8503 150.546 22.1942 150.57 22.55C150.58 22.9054 150.478 23.2549 150.28 23.55C150.045 23.9252 149.851 24.3241 149.7 24.74C149.475 25.4884 149.377 26.2692 149.41 27.05C149.415 27.4213 149.441 27.7919 149.49 28.16C149.551 28.523 149.699 28.8659 149.92 29.16C150.051 29.2913 150.207 29.3945 150.379 29.4632C150.551 29.532 150.735 29.565 150.92 29.56C151.433 29.5441 151.922 29.3373 152.29 28.98C152.891 28.3748 153.379 27.667 153.73 26.89L154.13 27.22C153.773 28.2833 153.154 29.2394 152.33 30C151.792 30.4763 151.108 30.7549 150.39 30.79C150.015 30.7987 149.644 30.7179 149.306 30.5545C148.969 30.391 148.676 30.1495 148.45 29.85C147.928 29.1246 147.548 28.3069 147.33 27.44C146.727 28.5481 146.059 29.6199 145.33 30.65C144.686 31.6147 143.923 32.4948 143.06 33.27C142.445 33.8973 141.617 34.2718 140.74 34.32V34.33ZM155.58 34C155.179 33.9968 154.786 33.8925 154.436 33.6967C154.087 33.5009 153.792 33.22 153.58 32.88C153.075 32.1007 152.814 31.1885 152.83 30.26C152.848 29.4573 152.955 28.659 153.15 27.88C153.365 26.9751 153.642 26.0863 153.98 25.22C154.26 24.473 154.601 23.7506 155 23.06C155.38 22.48 155.73 22.19 156 22.19C156.272 22.2285 156.532 22.3276 156.76 22.48C157.109 22.6402 157.427 22.8602 157.7 23.13C157.325 23.6918 156.99 24.28 156.7 24.89C156.316 25.7228 155.982 26.5776 155.7 27.45C155.431 28.2498 155.286 29.0862 155.27 29.93C155.27 30.03 155.27 30.26 155.27 30.62C155.31 30.9661 155.404 31.3036 155.55 31.62C155.612 31.7677 155.719 31.8923 155.855 31.9765C155.991 32.0608 156.15 32.1005 156.31 32.09C156.811 32.05 157.277 31.817 157.61 31.44C158.148 30.9178 158.631 30.3414 159.05 29.72C159.55 29 160.03 28.23 160.49 27.41C160.97 26.6 161.39 25.8 161.75 25.04C162.11 24.28 162.44 23.62 162.68 23.09C162.96 23.1335 163.237 23.1936 163.51 23.27C163.841 23.3567 164.158 23.4914 164.45 23.67C164.571 23.7285 164.673 23.8212 164.742 23.9367C164.812 24.0522 164.846 24.1854 164.84 24.32C164.749 24.6308 164.628 24.9322 164.48 25.22C164.27 25.72 164 26.33 163.69 27.05C163.38 27.77 163.14 28.52 162.9 29.28C162.696 29.9277 162.585 30.6011 162.57 31.28C162.564 31.5895 162.625 31.8967 162.75 32.18C162.839 32.3063 162.96 32.4064 163.101 32.4697C163.241 32.533 163.397 32.5573 163.55 32.54C164.203 32.4892 164.827 32.2533 165.35 31.86C166.155 31.291 166.881 30.6186 167.51 29.86C168.308 28.9179 168.981 27.8758 169.51 26.76L170.05 27.2C169.539 28.4585 168.845 29.6345 167.99 30.69C167.235 31.6427 166.322 32.4581 165.29 33.1C164.461 33.6597 163.49 33.9718 162.49 34C161.916 34.04 161.348 33.8614 160.9 33.5C160.558 33.1656 160.321 32.7378 160.22 32.27C160.103 31.7504 160.029 31.2219 160 30.69V30C159.59 30.65 159.15 31.28 158.67 31.91C158.22 32.4776 157.699 32.985 157.12 33.42C156.68 33.7689 156.141 33.9716 155.58 34V34ZM172.91 34.5C172.262 34.5416 171.613 34.4514 171.001 34.2348C170.389 34.0183 169.827 33.6798 169.35 33.24C168.944 32.8373 168.624 32.355 168.413 31.8233C168.201 31.2916 168.102 30.722 168.12 30.15C168.147 28.9905 168.416 27.8494 168.91 26.8C169.479 25.5836 170.22 24.4554 171.11 23.45C171.963 22.4407 172.976 21.5791 174.11 20.9C175.106 20.2727 176.253 19.9271 177.43 19.9C178.053 19.9005 178.663 20.0773 179.19 20.41C179.496 20.6178 179.738 20.9063 179.89 21.2434C180.042 21.5806 180.097 21.9533 180.05 22.32C180.051 23.2305 179.776 24.1198 179.26 24.87C178.696 25.7022 177.984 26.4241 177.16 27C176.246 27.6367 175.255 28.1542 174.21 28.54C173.175 28.9225 172.097 29.1777 171 29.3C171 29.4 170.95 29.5 170.93 29.62V30.13C170.93 30.25 170.93 30.46 170.93 30.78C170.985 31.1055 171.093 31.4197 171.25 31.71C171.438 32.0731 171.726 32.3749 172.08 32.58C172.564 32.8427 173.11 32.9672 173.66 32.94C174.714 32.9191 175.745 32.6337 176.66 32.11C177.729 31.5028 178.7 30.7375 179.54 29.84C180.441 28.9118 181.202 27.8574 181.8 26.71L182.52 27.28C181.908 28.6782 181.055 29.9577 180 31.06C179.043 32.1066 177.896 32.9618 176.62 33.58C175.47 34.1654 174.201 34.4801 172.91 34.5V34.5ZM171.4 28C172.127 27.8964 172.833 27.677 173.49 27.35C174.269 26.9852 175.004 26.5322 175.68 26C176.358 25.4932 176.955 24.8863 177.45 24.2C177.872 23.6166 178.109 22.9198 178.13 22.2C178.152 22.0089 178.102 21.8166 177.99 21.66C177.859 21.5502 177.69 21.4963 177.52 21.51C176.896 21.5378 176.294 21.7501 175.79 22.12C175.127 22.5389 174.525 23.047 174 23.63C173.409 24.2687 172.89 24.9695 172.45 25.72C172.023 26.4421 171.671 27.2061 171.4 28Z" fill="white"/>
<path d="M197.234 29.16C197.189 29.5265 197.106 29.8887 196.984 30.2419C196.907 30.4917 196.772 30.7255 196.588 30.9291C196.453 31.0935 196.264 31.2179 196.044 31.2855C195.81 31.3615 195.56 31.3961 195.31 31.3873H194.062C193.641 31.3873 193.186 31.3873 192.697 31.3873H191.551L190.245 31.5019C190.245 31.3237 190.245 31.0819 190.333 30.7891C190.421 30.4964 190.333 30.1655 190.421 29.8091C190.509 29.4528 190.421 29.0964 190.494 28.7019C190.568 28.3073 190.494 27.9509 190.494 27.5819C190.494 27.2128 190.494 26.8564 190.494 26.5382C190.494 26.22 190.494 25.94 190.494 25.6982C191.184 25.7746 191.83 25.8255 192.432 25.8764C193.034 25.9273 193.563 25.94 194.048 25.94H194.767C194.957 25.9198 195.144 25.8814 195.325 25.8255C195.456 25.7833 195.576 25.7184 195.677 25.6346C195.719 25.5952 195.75 25.5489 195.771 25.4986C195.791 25.4483 195.799 25.395 195.795 25.3419C195.793 25.1755 195.753 25.0112 195.677 24.8582C195.339 24.922 194.995 24.9645 194.65 24.9855C194.282 24.9855 193.857 24.9855 193.387 24.9855H192.109H190.524V23.3819C190.524 22.86 190.524 22.3637 190.524 21.9055C190.524 21.4473 190.524 21.0019 190.524 20.6328C190.524 20.2637 190.524 19.8564 190.524 19.5255H194.282C194.556 19.5019 194.831 19.5019 195.105 19.5255C195.296 19.5664 195.47 19.6549 195.604 19.78C195.73 19.9219 195.816 20.0876 195.854 20.2637C195.906 20.537 195.93 20.8139 195.927 21.0909C195.927 21.2055 195.927 21.32 195.927 21.46C195.927 21.6 195.927 21.7273 195.927 21.88H196.588C196.588 21.6255 196.661 21.3455 196.691 21.0528C196.72 20.76 196.691 20.4673 196.691 20.2C196.691 19.9328 196.691 19.6909 196.764 19.4873C196.837 19.2837 196.764 19.1309 196.764 19.0546C196.77 18.9816 196.757 18.9084 196.727 18.8402C196.696 18.772 196.649 18.7105 196.588 18.66C196.45 18.5671 196.277 18.5217 196.103 18.5328H195.927H194.679H192.946H190.876H190.039L189.099 18.6091L188.013 18.7237L186.75 18.8891L186.823 19.4491L187.455 19.3855H187.954C188.14 19.3701 188.326 19.3701 188.512 19.3855C188.633 19.4174 188.744 19.4742 188.835 19.5509C188.923 19.6312 188.98 19.7337 188.997 19.8437C189.014 19.9875 189.014 20.1325 188.997 20.2764V22.3891V24.6546C188.997 25.4055 188.997 26.1691 188.997 26.9073C188.997 27.6455 188.923 28.3709 188.894 29.0455C188.864 29.72 188.791 30.3182 188.747 30.9037C188.703 31.4891 188.629 31.9473 188.571 32.3546H188.585C189.092 32.2433 189.607 32.1667 190.127 32.1255C190.59 32.077 191.056 32.0515 191.522 32.0491C191.968 32.0502 192.414 32.0715 192.858 32.1128C193.255 32.1128 193.651 32.1891 194.003 32.2528L194.987 32.38C195.261 32.3972 195.536 32.3972 195.81 32.38C196.098 32.3838 196.384 32.3316 196.646 32.2273C196.916 32.1171 197.138 31.934 197.278 31.7055C197.479 31.3837 197.618 31.0354 197.689 30.6746C197.791 30.1274 197.845 29.5743 197.85 29.02L197.234 29.16Z" fill="url(#paint0_linear_415_41)"/>
<path d="M201.8 30.0255C201.8 29.8345 201.712 29.2745 201.712 28.88C201.712 28.2564 201.712 27.6073 201.712 26.9073C201.712 26.2073 201.712 25.52 201.83 24.8073C201.947 24.0945 201.932 23.3691 202.006 22.6309L202.226 20.4418C202.314 19.7164 202.388 18.9909 202.476 18.2782C202.564 17.5655 202.667 16.8655 202.755 16.1909C202.486 16.0713 202.19 16.0061 201.888 16H201.536C201.425 16.0201 201.317 16.05 201.213 16.0891C201.122 16.1344 201.042 16.195 200.978 16.2673C200.919 16.3373 200.888 16.4223 200.89 16.5091C200.89 16.9291 200.816 17.4127 200.772 17.96C200.728 18.5073 200.699 19.08 200.67 19.7036C200.64 20.3273 200.582 20.9764 200.537 21.6255C200.493 22.2745 200.449 22.8982 200.42 23.5855C200.391 24.2727 200.42 24.8582 200.317 25.4691C200.214 26.08 200.317 26.64 200.229 27.1491C200.141 27.6582 200.229 28.1164 200.229 28.4982C200.229 28.88 200.229 29.1727 200.229 29.3891V30.1782C200.24 30.3367 200.285 30.4921 200.361 30.6364C201.609 31.82 203.224 30.9545 204.737 32.2273C203.885 30.9291 202.255 31.1964 201.8 30.0255Z" fill="url(#paint1_linear_415_41)"/>
<path d="M206.851 23.649H206.587C206.484 23.6591 206.385 23.685 206.293 23.7254C206.204 23.7621 206.128 23.8193 206.073 23.8908C206.01 23.9697 205.975 24.0624 205.97 24.1581C205.97 24.6672 205.941 25.1635 205.882 25.6472C205.882 26.1308 205.882 26.589 205.882 27.0217C205.882 27.4544 205.882 27.8617 205.882 28.2308C205.882 28.5999 205.882 28.9563 205.882 29.249C205.212 30.923 206.535 31.7342 206.367 33.4999C206.367 31.5399 206.881 31.8835 207.409 29.8217C207.409 29.529 207.409 29.1726 207.409 28.7526C207.409 28.3326 207.409 28.1035 207.409 27.7217C207.409 27.3399 207.409 26.9326 207.497 26.5126C207.585 26.0926 207.571 25.6344 207.629 25.1763C207.688 24.7181 207.747 24.2726 207.82 23.8144C207.522 23.6803 207.186 23.6229 206.851 23.649ZM208.187 19.6017C208.142 19.4893 208.073 19.3855 207.982 19.2963C207.893 19.2078 207.783 19.1382 207.659 19.0926C207.525 19.0391 207.38 19.013 207.233 19.0163C207.103 19.0201 206.974 19.0415 206.851 19.0799C206.71 19.1323 206.581 19.2055 206.469 19.2963C206.348 19.4038 206.253 19.5313 206.19 19.6712C206.127 19.8111 206.097 19.9606 206.102 20.1108C206.103 20.3624 206.196 20.6074 206.367 20.8108C206.453 20.9075 206.563 20.9859 206.69 21.0399C206.825 21.1035 206.977 21.1343 207.13 21.129C207.289 21.1285 207.446 21.0935 207.585 21.0272C207.725 20.9628 207.846 20.8713 207.938 20.7599C208.041 20.6502 208.121 20.5251 208.173 20.3908C208.229 20.2561 208.259 20.1141 208.261 19.9708C208.26 19.8451 208.236 19.7203 208.187 19.6017Z" fill="url(#paint2_linear_415_41)"/>
<path d="M216.616 31.0944C216.28 31.2423 215.932 31.3657 215.573 31.4635C215.3 31.5288 215.019 31.5673 214.736 31.5781C214.436 31.5914 214.139 31.5248 213.885 31.3872C213.652 31.2535 213.465 31.0691 213.341 30.8526C213.211 30.5794 213.122 30.2928 213.077 29.9999C213.028 29.6196 213.004 29.2372 213.004 28.8544C213.004 28.6254 213.004 28.3581 213.004 28.0526C213.004 27.7472 213.004 27.4163 213.004 27.0472C213.004 26.6781 213.004 26.309 213.092 25.9017C213.18 25.4944 213.165 25.0744 213.209 24.629L214.442 24.7181C214.824 24.7181 215.162 24.7181 215.47 24.7181C215.713 24.7272 215.956 24.7014 216.19 24.6417C216.272 24.6189 216.343 24.5725 216.391 24.51C216.439 24.4476 216.461 24.3729 216.454 24.2981C216.461 24.2474 216.461 24.1961 216.454 24.1454V23.9544C216.109 23.9993 215.76 24.0206 215.412 24.0181H213.943H213.297C213.4 23.229 213.517 22.4399 213.635 21.6254C213.752 20.8108 213.943 20.0344 214.134 19.2708C214.023 19.2197 213.904 19.1812 213.782 19.1563C213.65 19.1424 213.517 19.1424 213.385 19.1563H213.092C212.999 19.1662 212.909 19.1922 212.827 19.2326C212.738 19.2694 212.662 19.3266 212.607 19.3981C212.543 19.474 212.498 19.5607 212.475 19.6526C212.357 20.2381 212.24 20.9254 212.123 21.6508C212.005 22.3763 211.888 23.1781 211.785 24.0054L211.007 24.0944C210.8 24.1248 210.598 24.1761 210.405 24.2472C210.256 24.2878 210.12 24.3574 210.008 24.4508C209.964 24.4757 209.927 24.5096 209.902 24.5495C209.876 24.5895 209.862 24.6342 209.861 24.6799C209.861 24.6799 209.861 24.7435 209.861 24.769C210.126 24.7118 210.396 24.6777 210.669 24.6672C210.972 24.6672 211.31 24.6672 211.682 24.6672C211.682 25.0363 211.594 25.4308 211.55 25.8254L211.462 27.009C211.462 27.4163 211.462 27.7981 211.462 28.1926C211.462 28.5872 211.462 28.9435 211.462 29.2999C211.452 29.842 211.507 30.3836 211.623 30.9163C211.696 31.2725 211.845 31.6137 212.064 31.9217C212.21 32.155 212.443 32.3388 212.725 32.4435C212.987 32.5478 213.273 32.6 213.561 32.5963C213.814 32.5899 214.065 32.5601 214.31 32.5072C214.587 32.4566 214.857 32.3842 215.118 32.2908C215.417 32.1975 215.707 32.0826 215.984 31.9472C216.278 31.8072 216.557 31.6672 216.851 31.5017C216.832 31.3458 216.748 31.2012 216.616 31.0944Z" fill="url(#paint3_linear_415_41)"/>
<path d="M224.735 30.5346L224.618 30.4582H224.515C224.133 30.8079 223.686 31.1004 223.194 31.3237C222.796 31.4932 222.36 31.5845 221.916 31.591C221.511 31.5961 221.11 31.5083 220.756 31.3364C220.393 31.1645 220.077 30.9255 219.831 30.6364C219.559 30.3072 219.351 29.9418 219.215 29.5546C219.064 29.0996 218.989 28.628 218.994 28.1546V28.04C219.789 27.9921 220.578 27.8985 221.358 27.76C222.012 27.6432 222.651 27.4728 223.267 27.251C223.747 27.0733 224.178 26.8085 224.53 26.4746C224.835 26.1817 225.003 25.8003 225 25.4055C225.006 25.1426 224.929 24.8832 224.78 24.6546C224.644 24.438 224.459 24.2475 224.236 24.0946C223.985 23.9466 223.707 23.8348 223.414 23.7637C223.101 23.6761 222.774 23.6331 222.445 23.6364C221.946 23.6365 221.451 23.7052 220.977 23.84C220.539 23.9895 220.124 24.1862 219.743 24.4255C219.368 24.6746 219.032 24.9656 218.745 25.291C218.44 25.6207 218.188 25.9846 217.996 26.3728C217.785 26.7805 217.627 27.2074 217.526 27.6455C217.411 28.0624 217.352 28.4895 217.35 28.9182C217.349 29.4161 217.443 29.9106 217.629 30.3819C217.805 30.8173 218.068 31.2224 218.407 31.5782C218.734 31.9147 219.14 32.1879 219.596 32.38C220.053 32.5766 220.555 32.681 221.065 32.6855C221.396 32.6778 221.726 32.6394 222.048 32.571C222.387 32.4918 222.712 32.3763 223.018 32.2273C223.353 32.0655 223.668 31.8735 223.957 31.6546C224.265 31.4099 224.541 31.1368 224.78 30.84C224.78 30.84 224.78 30.84 224.78 30.84V30.7637L224.735 30.5346ZM219.171 26.7164C219.171 26.4746 219.317 26.2328 219.42 25.991C219.533 25.76 219.66 25.5348 219.802 25.3164C219.949 25.1177 220.121 24.934 220.316 24.7691C220.509 24.613 220.733 24.488 220.977 24.4C221.232 24.306 221.507 24.2583 221.784 24.26C221.981 24.2604 222.176 24.295 222.357 24.3619C222.525 24.4329 222.679 24.5275 222.812 24.6419C222.938 24.7654 223.038 24.9077 223.106 25.0619C223.178 25.2241 223.213 25.3971 223.208 25.571C223.215 25.8374 223.117 26.0978 222.929 26.3091C222.707 26.5433 222.426 26.7305 222.107 26.8564C221.69 27.0277 221.252 27.1559 220.8 27.2382C220.22 27.344 219.631 27.4121 219.038 27.4419C219.068 27.2297 219.112 26.9964 219.171 26.7419V26.7164Z" fill="url(#paint4_linear_415_41)"/>
<defs>
<linearGradient id="paint0_linear_415_41" x1="186.706" y1="25.52" x2="197.85" y2="25.52" gradientUnits="userSpaceOnUse">
<stop stop-color="#BF953F"/>
<stop offset="0.23" stop-color="#B38728" stop-opacity="0.8"/>
<stop offset="0.52" stop-color="#FCF6A7"/>
<stop offset="0.76" stop-color="#FBDD71"/>
<stop offset="1" stop-color="#AA771C"/>
</linearGradient>
<linearGradient id="paint1_linear_415_41" x1="200.126" y1="25.2273" x2="204.517" y2="25.2273" gradientUnits="userSpaceOnUse">
<stop stop-color="#BF953F"/>
<stop offset="0.23" stop-color="#B38728" stop-opacity="0.8"/>
<stop offset="0.52" stop-color="#FCF6A7"/>
<stop offset="0.76" stop-color="#FBDD71"/>
<stop offset="1" stop-color="#AA771C"/>
</linearGradient>
<linearGradient id="paint2_linear_415_41" x1="204.516" y1="26.7417" x2="208.26" y2="26.7417" gradientUnits="userSpaceOnUse">
<stop stop-color="#BF953F"/>
<stop offset="0.23" stop-color="#B38728" stop-opacity="0.8"/>
<stop offset="0.52" stop-color="#FCF6A7"/>
<stop offset="0.76" stop-color="#FBDD71"/>
<stop offset="1" stop-color="#AA771C"/>
</linearGradient>
<linearGradient id="paint3_linear_415_41" x1="209.905" y1="25.8635" x2="216.836" y2="25.8635" gradientUnits="userSpaceOnUse">
<stop stop-color="#BF953F"/>
<stop offset="0.23" stop-color="#B38728" stop-opacity="0.8"/>
<stop offset="0.52" stop-color="#FCF6A7"/>
<stop offset="0.76" stop-color="#FBDD71"/>
<stop offset="1" stop-color="#AA771C"/>
</linearGradient>
<linearGradient id="paint4_linear_415_41" x1="217.365" y1="28.091" x2="225" y2="28.091" gradientUnits="userSpaceOnUse">
<stop stop-color="#BF953F"/>
<stop offset="0.23" stop-color="#B38728" stop-opacity="0.8"/>
<stop offset="0.52" stop-color="#FCF6A7"/>
<stop offset="0.76" stop-color="#FBDD71"/>
<stop offset="1" stop-color="#AA771C"/>
</linearGradient>
</defs>
</svg>
